 http://leetleech.org/images/83830957740438121565.jpg

Screens:
 
http://leetleech.org/images/43512234934019149109.jpg 
http://leetleech.org/images/87207042405351230562.jpg 
http://leetleech.org/images/16626994605495274024.jpg 
http://leetleech.org/images/01929456797714874783.jpg

Alternative:
 
http://www.postimg.com/image/82000/photo-81945.jpg 
http://www.postimg.com/image/82000/photo-81946.jpg 
http://www.postimg.com/image/82000/photo-81947.jpg 
http://www.postimg.com/image/82000/photo-81949.jpg

ScreenCaps:
 
http://www.postimg.com/image/82000/photo-81951.jpg

Snow White and the Huntsman (2012) DVDRip XviD-MAX
Format                                   : AVI
Format/Info                              : Audio Video Interleave
Format profile                           : OpenDML
Format settings                          : rec
File size                                : 1.24 GiB
Duration                                 : 2h 11mn
Overall bit rate                         : 1 353 Kbps
Writing application                      : VirtualDubMod 1.5.10.2 (build 2542/release)
Writing library                          : VirtualDubMod build 2542/release
Original source form                     : MAX TORRENTZ
Copyright                                : SIGISMUNT

Video
ID                                       : 0
Format                                   : MPEG-4 Visual
Format profile                           : Advanced Simple@L5
Format settings, BVOP                    : 2
Format settings, QPel                    : No
Format settings, GMC                     : No warppoints
Format settings, Matrix                  : Default (H.263)
Muxing mode                              : Packed bitstream
Codec ID                                 : XVID
Codec ID/Hint                            : XviD
Duration                                 : 2h 11mn
Bit rate                                 : 1 028 Kbps
Width                                    : 640 pixels
Height                                   : 272 pixels
Display aspect ratio                     : 2.35:1
Frame rate                               : 23.976 fps
Color space                              : YUV
Chroma subsampling                       : 4:2:0
Bit depth                                : 8 bits
Scan type                                : Progressive
Compression mode                         : Lossy
Bits/(Pixel*Frame)                       : 0.246
Stream size                              : 967 MiB (76%)
Writing library                          : XviD 64

Audio
ID                                       : 1
Format                                   : AC-3
Format/Info                              : Audio Coding 3
Mode extension                           : CM (complete main)
Format settings, Endianness              : Big
Codec ID                                 : 2000
Duration                                 : 2h 11mn
Bit rate mode                            : Constant
Bit rate                                 : 320 Kbps
Channel(s)                               : 6 channels
Channel positions                        : Front: L C R, Side: L R, LFE
Sampling rate                            : 48.0 KHz
Bit depth                                : 16 bits
Compression mode                         : Lossy
Stream size                              : 301 MiB (24%)
Alignment                                : Aligned on interleaves
Interleave, duration                     : 64 ms (1.53 video frames)
Interleave, preload duration             : 192 ms

Source: DVD (perfect a/v/sync quality,sample included)
This torrent is not seedbox supported,please seed it to the MAX